# xmcd
#
# Track frame offsets: 
#        150
#        15035
#        34238
#        52994
#        75063
#        87317
#
# Disc length: 1477 seconds
#
# Revision: 0
# Processed by: cddbd v1.5.2PL0 Copyright (c) Steve Scherf et al.
# Submitted via: ExactAudioCopy v0.99pb4
#
DISCID=2d05c306
DTITLE=Bonnie 'Prince' Billy - Now Here's My Plan
DYEAR=2012
DGENRE=Country
TTITLE0=I Don't Belong to Anyone
TTITLE1=Beast for Thee
TTITLE2=No Gold Digger
TTITLE3=After I Made Love to You
TTITLE4=I See a Darkness
TTITLE5=Three Questions
EXTD=
EXTT0=
EXTT1=
EXTT2=
EXTT3=
EXTT4=
EXTT5=
PLAYORDER=
